<svg xmlns="http://www.w3.org/2000/svg" viewBox="0 0 1730.649 320.917"><defs><style>.a{fill:#231f20;}.b{fill:#00476c;}</style></defs><title>logo</title><path class="a" d="M457.248-43.785q-13.114,0-38.786-3.857l6.832-23.029a145.492,145.492,0,0,0,32.945,4.3q14.1,0,24.35-6.831,11.678-7.932,11.68-21.375,0-9.146-9.587-15.758-3.2-2.093-17.519-8.76T446.78-131.824q-8.485-8.483-8.483-21.486,0-31.182,27.655-42.311a74.947,74.947,0,0,1,27.876-5.069q15.093,0,38.342,4.077l-6.72,22.588q-23.362-3.855-32.724-3.856-28.869,0-28.869,19.834,0,8.923,9.255,14.984,2.316,1.433,17.189,8.1t21.046,12.948q8.7,8.592,8.7,22.257,0,25.015-18.951,40.767Q482.7-43.784,457.248-43.785Z" transform="translate(-29.867 200.689)"/><path class="a" d="M539.523-47.2l18.632-106.766,24.81-4.963L563.35-47.2ZM574.59-169.947a14.7,14.7,0,0,1-10.742-4.574,14.693,14.693,0,0,1-4.573-10.742,14.915,14.915,0,0,1,4.516-10.853,14.657,14.657,0,0,1,10.8-4.573,14.658,14.658,0,0,1,10.8,4.573,14.925,14.925,0,0,1,4.518,10.853,14.7,14.7,0,0,1-4.573,10.742A14.7,14.7,0,0,1,574.59-169.947Z" transform="translate(-29.867 200.689)"/><path class="a" d="M713.5-47.2l11.678-66.338q2.013-10.963.8-18.206-1.1-6.69-10.687-6.691-8.485,0-22.808,6.254a94.468,94.468,0,0,1-1.761,18.647L678.933-47.2H654.987l11.788-66.338q2.021-10.968.7-18.206-1.211-6.69-10.673-6.691-8.364,0-21.129,6.4L620.568-47.2H596.629l16.2-92.336a40.611,40.611,0,0,0-.44-14.435l21.926-4.958a19.225,19.225,0,0,1,2.865,6.611,89.389,89.389,0,0,1,28.317-6.169q14.651-.768,21.375,8.373,21.263-8.371,38.344-8.373,25.452,0,25.451,28.757a97.251,97.251,0,0,1-1.542,16.2L737.44-47.2Z" transform="translate(-29.867 200.689)"/><path class="a" d="M854.058-154.191l-6.279,20.163q-14.545-4.406-25.232-4.407-23.25,0-29.861,37.465-6.61,37.352,16.747,37.351a115.3,115.3,0,0,0,30.191-4.518l-.66,20.055A119.79,119.79,0,0,1,805.8-43.565q-25.012,0-33.605-16.087-5.73-10.687-5.73-25.343a98.153,98.153,0,0,1,1.432-16.088q6.61-37.9,31.4-51.124,12.007-6.39,27.985-6.28Q838.96-158.377,854.058-154.191Z" transform="translate(-29.867 200.689)"/><path class="a" d="M896.189-43.785q-25.56,0-33.935-15.758-5.511-10.353-5.509-25.011a96.245,96.245,0,0,1,1.542-16.53q4.406-25.449,18.4-40.767,15.093-16.635,39.773-16.637,25.232,0,34.271,16.968a45.346,45.346,0,0,1,4.956,18.181,93.4,93.4,0,0,1-1.543,22.256Q944.337-43.784,896.189-43.785Zm16.747-94.65q-14.1,0-21.7,12.12-5.068,8.155-8.153,25.122A102.973,102.973,0,0,0,881.2-82.57q-.222,18.733,18.621,18.732,18.51,0,25.12-18.513a127.8,127.8,0,0,0,4.627-18.842q2.866-16.3.442-26.775T912.936-138.435Z" transform="translate(-29.867 200.689)"/><path class="a" d="M996.964-89.984a2.069,2.069,0,0,0-.109.664l-.11.879a3.351,3.351,0,0,1-.222.664q-.551,24.159,16.747,24.158a120.235,120.235,0,0,0,34.045-4.848l-.88,20.6a132.356,132.356,0,0,1-35.257,4.3q-19.287,0-29.64-11.678-9.808-11.13-9.806-30.743,0-41.981,26.553-62.255,13.331-10.248,32.5-10.247,14.211,0,24.13,8.273a28.131,28.131,0,0,1,10.685,22.724q0,20.63-24.79,30.117A112.324,112.324,0,0,1,996.964-89.984Zm3.858-20.131q19.276-.665,32.724-7.747,7.381-3.865,7.383-9.733,0-10.838-12.123-10.839-14.211,0-22.918,14.712A39.715,39.715,0,0,0,1000.822-110.115Z" transform="translate(-29.867 200.689)"/><path class="a" d="M1246.279-196.392l-6.613,21.707a202.983,202.983,0,0,0-35.808-3.2q-26.006,0-35.589,28.1a187.352,187.352,0,0,0-6.832,27.657,173.657,173.657,0,0,0-2.974,26.555q-.774,28.98,25.779,28.98a253.075,253.075,0,0,0,41.76-3.2L1224.8-48.3a132.091,132.091,0,0,1-28.21,4.3q-6.279.222-16.2.222-42.638,0-46.387-39.557-1.764-18.288,2.314-40.218a161.42,161.42,0,0,1,12.01-38.565q17.851-38.563,59.609-38.565A172.866,172.866,0,0,1,1246.279-196.392Z" transform="translate(-29.867 200.689)"/><path class="a" d="M1283.009-43.785q-25.56,0-33.932-15.758-5.511-10.353-5.511-25.011a96.259,96.259,0,0,1,1.544-16.53q4.4-25.449,18.4-40.767,15.09-16.635,39.775-16.637,25.232,0,34.268,16.968a45.341,45.341,0,0,1,4.956,18.181,93.374,93.374,0,0,1-1.54,22.256Q1331.156-43.784,1283.009-43.785Zm16.751-94.65q-14.1,0-21.707,12.12-5.071,8.155-8.153,25.122a102.988,102.988,0,0,0-1.876,18.623q-.222,18.733,18.623,18.732,18.513,0,25.122-18.513a128.257,128.257,0,0,0,4.627-18.842q2.861-16.3.438-26.775T1299.76-138.435Z" transform="translate(-29.867 200.689)"/><path class="a" d="M1418.914-47.2l-2.649-5.18q-16.744,8.374-31.4,8.373-19.833,0-25.345-12.12-3.412-7.381-3.412-17.849a83.5,83.5,0,0,1,1.431-14.766l11.569-65.231,24.833-4.965-12.455,70.2a72.048,72.048,0,0,0-1.356,12.5q-.222,12.176,13.1,12.173,11.344,0,23.9-6.173l14.66-83.733,24.808-4.963L1440.617-67.7a51,51,0,0,0,.66,20.495Z" transform="translate(-29.867 200.689)"/><path class="a" d="M1528.584-47.2l11.791-66.253a75.523,75.523,0,0,0,1.212-12.985q-.223-12-13.194-12-11.328,0-23.861,6.185L1489.388-47.2h-23.939l16.2-92.336a40.622,40.622,0,0,0-.441-14.435l21.925-4.958a19.155,19.155,0,0,1,2.865,6.611q16.415-6.17,30.742-6.169,20.05,0,26.112,13.222a38,38,0,0,1,2.974,14.324,92.307,92.307,0,0,1-1.54,17.409L1552.494-47.2Z" transform="translate(-29.867 200.689)"/><path class="a" d="M1639.811-135.239h-17.167L1613.838-85.1q-1.473,7.935-.7,11.457,1.1,5.839,14.214,10.906l-8.813,19.168q-18.736-5.95-24.684-12.892a20.034,20.034,0,0,1-4.627-10.579,47.609,47.609,0,0,1,.441-15.647l9.23-52.558-10.993,0,3.306-19.833,11.06-.012,5.027-27.975,24.854-5.192-5.864,33.179h22.77Z" transform="translate(-29.867 200.689)"/><path class="a" d="M1665.1,3.814l-12.01-14.433q8.483-5.733,15.539-16.528,3.413-5.293,10.9-20.054A14.8,14.8,0,0,1,1677-52.82l-16.97-101.152,25.606-5.187,11.456,78.27,37.217-74.184h26.21l-57.3,108.752q-4.96,9.585-16.087,28.209A85.74,85.74,0,0,1,1665.1,3.814Z" transform="translate(-29.867 200.689)"/><path class="a" d="M424.294,117.091,442.8,12.6h30.672q22.795,0,30.52,15.606a43.952,43.952,0,0,1,4.205,16.6,88.707,88.707,0,0,1-7.188,40.234q-8.568,20.347-25.7,27.994a49.1,49.1,0,0,1-20.347,4.055Zm32.562-88.652-12.822,72.82h11.394q20.344,0,27.687-17.136a88.858,88.858,0,0,0,5.429-19.354A81.643,81.643,0,0,0,490,46.033q-1.073-17.591-21.738-17.595Z" transform="translate(-29.867 200.689)"/><path class="a" d="M516.491,117.091l12.934-74.116,17.222-3.444-13.615,77.561Zm24.343-85.208a10.207,10.207,0,0,1-7.457-3.176A10.2,10.2,0,0,1,530.2,21.25a10.353,10.353,0,0,1,3.135-7.535,10.434,10.434,0,0,1,14.991,0,10.353,10.353,0,0,1,3.137,7.535,10.215,10.215,0,0,1-3.174,7.457A10.218,10.218,0,0,1,540.835,31.883Z" transform="translate(-29.867 200.689)"/><path class="a" d="M571.174,119.461a107.357,107.357,0,0,1-15.527-1.374l-8.185-1.3,4.437-13.921,6.423,1.19a66.732,66.732,0,0,0,12.314,1.487,24.562,24.562,0,0,0,11.551-2.6q6.2-3.285,6.2-9.244,0-4.048-5.507-7.259-.919-.535-9.025-4.048-7.5-3.211-10.938-6.419a14.853,14.853,0,0,1-4.742-11.233q0-17.189,15.6-22.537a49.935,49.935,0,0,1,15.832-2.367,119.034,119.034,0,0,1,23.024,2.829l-4.512,14.147a70.044,70.044,0,0,0-20.039-3.059q-12.393,0-12.392,7.2,0,3.985,5.124,6.818,4.284,1.838,8.568,3.674,7.877,3.449,11.471,6.9a15.524,15.524,0,0,1,5.05,11.791,25.815,25.815,0,0,1-10.709,21.519A38.705,38.705,0,0,1,571.174,119.461Z" transform="translate(-29.867 200.689)"/><path class="a" d="M657.742,55.973H645.824l-6.113,34.808q-1.025,5.51-.489,7.955.763,4.054,9.868,7.574l-6.12,13.3q-13-4.127-17.132-8.947a13.89,13.89,0,0,1-3.213-7.344,33.036,33.036,0,0,1,.306-10.862l6.409-36.486h-7.633L624,42.208l7.677-.011,3.488-19.421,17.254-3.6-4.069,23.035h15.8Z" transform="translate(-29.867 200.689)"/><path class="a" d="M709.727,57.122q-3.974-2.368-6.42-2.37-5.349,0-13.3,3.448L679.68,117.091H663.062l11.244-64.1a22.951,22.951,0,0,0,.306-3.9A28.23,28.23,0,0,0,674,42.974l15.377-3.444a16.294,16.294,0,0,1,1.833,4.589A60.532,60.532,0,0,1,712.4,39.838q1.987,0,6.425.3Z" transform="translate(-29.867 200.689)"/><path class="a" d="M713.725,117.091l12.934-74.116,17.222-3.444-13.616,77.561Zm24.343-85.208a10.208,10.208,0,0,1-7.457-3.176,10.2,10.2,0,0,1-3.174-7.457,10.352,10.352,0,0,1,3.135-7.535,10.434,10.434,0,0,1,14.991,0A10.355,10.355,0,0,1,748.7,21.25a10.216,10.216,0,0,1-3.174,7.457A10.217,10.217,0,0,1,738.069,31.883Z" transform="translate(-29.867 200.689)"/><path class="a" d="M815.066,42.819l-4.36,14a61.917,61.917,0,0,0-17.515-3.059q-16.139,0-20.728,26.009-4.589,25.926,11.627,25.931a80.058,80.058,0,0,0,20.957-3.137l-.459,13.918a83.134,83.134,0,0,1-23.024,3.137q-17.363,0-23.328-11.166a36.74,36.74,0,0,1-3.977-17.595,68.213,68.213,0,0,1,.994-11.166q4.591-26.313,21.8-35.49a40.1,40.1,0,0,1,19.43-4.359A73.187,73.187,0,0,1,815.066,42.819Z" transform="translate(-29.867 200.689)"/><path class="a" d="M855.282,55.973H843.364l-6.113,34.808q-1.022,5.51-.487,7.955.763,4.054,9.866,7.574l-6.118,13.3q-13-4.127-17.134-8.947a13.893,13.893,0,0,1-3.213-7.344,33.041,33.041,0,0,1,.307-10.862l6.408-36.486h-7.634l2.3-13.765,7.677-.011,3.488-19.421,17.256-3.6-4.071,23.035H861.7Z" transform="translate(-29.867 200.689)"/><path class="a" d="M918.86,119.461q-9.1,0-26.924-2.677l4.742-15.984a101.209,101.209,0,0,0,22.871,2.981,29.751,29.751,0,0,0,16.9-4.74q8.107-5.51,8.107-14.843,0-6.348-6.655-10.936-2.215-1.451-12.158-6.083t-14.151-8.831A20.211,20.211,0,0,1,905.7,43.43q0-21.645,19.2-29.372a52.012,52.012,0,0,1,19.35-3.518,160.058,160.058,0,0,1,26.617,2.833L966.2,29.05q-16.213-2.676-22.716-2.678-20.039,0-20.039,13.769,0,6.2,6.426,10.4,1.605,1,11.932,5.62t14.606,8.99q6.046,5.966,6.044,15.451,0,17.363-13.155,28.3Q936.527,119.461,918.86,119.461Z" transform="translate(-29.867 200.689)"/><path class="a" d="M1037.692,42.819l-4.359,14a61.9,61.9,0,0,0-17.514-3.059q-16.139,0-20.728,26.009Q990.5,105.69,1006.717,105.7a80.061,80.061,0,0,0,20.958-3.137l-.459,13.918a83.124,83.124,0,0,1-23.024,3.137q-17.363,0-23.328-11.166a36.761,36.761,0,0,1-3.977-17.595,68.023,68.023,0,0,1,1-11.166q4.589-26.313,21.8-35.49a40.1,40.1,0,0,1,19.428-4.359A73.153,73.153,0,0,1,1037.692,42.819Z" transform="translate(-29.867 200.689)"/><path class="a" d="M1082.462,117.091l8.029-46.051q1.41-8,.258-12.713-1.145-4.567-8.393-4.571a37.468,37.468,0,0,0-16.556,4.3l-10.519,59.04h-16.62L1057.555,9.47l17.3-3.444-6.634,37.783a56.667,56.667,0,0,1,19.905-3.971q13.935,0,18.149,9.177a26.357,26.357,0,0,1,2.066,9.944,64.19,64.19,0,0,1-1.07,12.085l-8.188,46.048Z" transform="translate(-29.867 200.689)"/><path class="a" d="M1150.616,119.461q-17.75,0-23.557-10.936-3.826-7.19-3.826-17.365a66.825,66.825,0,0,1,1.07-11.473q3.057-17.67,12.773-28.3,10.48-11.545,27.613-11.547,17.517,0,23.787,11.777a31.373,31.373,0,0,1,3.44,12.621,64.889,64.889,0,0,1-1.067,15.451Q1184.035,119.463,1150.616,119.461Zm11.625-65.706a16.787,16.787,0,0,0-15.065,8.414q-3.518,5.664-5.662,17.443a71.674,71.674,0,0,0-1.3,12.925q-.154,13,12.925,13,12.855,0,17.443-12.851a89.407,89.407,0,0,0,3.211-13.077q1.987-11.323.307-18.587T1162.24,53.755Z" transform="translate(-29.867 200.689)"/><path class="a" d="M1229.218,119.461q-17.745,0-23.557-10.936-3.825-7.19-3.826-17.365a66.789,66.789,0,0,1,1.07-11.473q3.063-17.67,12.777-28.3,10.475-11.545,27.609-11.547,17.517,0,23.787,11.777a31.375,31.375,0,0,1,3.444,12.621,64.946,64.946,0,0,1-1.07,15.451Q1262.638,119.463,1229.218,119.461Zm11.625-65.706a16.787,16.787,0,0,0-15.065,8.414q-3.519,5.664-5.663,17.443a71.684,71.684,0,0,0-1.3,12.925q-.159,13,12.922,13,12.854,0,17.443-12.851a89.453,89.453,0,0,0,3.211-13.077q1.987-11.323.307-18.587T1240.843,53.755Z" transform="translate(-29.867 200.689)"/><path class="a" d="M1303,108.3l-6.274,11.932q-5.813-2.22-7.34-2.985a15.967,15.967,0,0,1-6.118-4.892,11.281,11.281,0,0,1-2.066-5.892,40.433,40.433,0,0,1,.689-9.714l15.3-87.274,17.3-3.444L1298.35,97.663q-.768,4.361.11,6.39T1303,108.3Z" transform="translate(-29.867 200.689)"/><path class="a" d="M1396.494,117.091h-41.686L1373.318,12.6H1412.1a22.343,22.343,0,0,1,15.68,5.74q6.273,5.738,6.274,15.069,0,9.638-6.118,19.2a31.1,31.1,0,0,1-6.425,7.266q8.944,5.58,8.947,18.662a42.071,42.071,0,0,1-4.281,18.51,37.68,37.68,0,0,1-12.162,14.575A29.581,29.581,0,0,1,1396.494,117.091Zm2.466-48.418H1380.4l-5.85,32.586h18.661q11.318,0,16.9-9.792a20.038,20.038,0,0,0,2.522-9.944q0-6.12-3.744-9.485T1398.96,68.673Zm7.089-40.234H1387.37l-4.324,24.4h18.58a13.332,13.332,0,0,0,10.244-4.4,15.1,15.1,0,0,0,4.052-10.6Q1415.922,28.44,1406.049,28.438Z" transform="translate(-29.867 200.689)"/><path class="a" d="M1471.5,119.461q-17.745,0-23.557-10.936-3.826-7.19-3.826-17.365a66.487,66.487,0,0,1,1.074-11.473q3.057-17.67,12.773-28.3,10.475-11.545,27.609-11.547,17.517,0,23.787,11.777a31.37,31.37,0,0,1,3.444,12.621,64.927,64.927,0,0,1-1.07,15.451Q1504.929,119.463,1471.5,119.461Zm11.628-65.706a16.793,16.793,0,0,0-15.069,8.414q-3.519,5.664-5.659,17.443a71.377,71.377,0,0,0-1.3,12.925q-.159,13,12.925,13,12.849,0,17.439-12.851a89.407,89.407,0,0,0,3.211-13.077q1.987-11.323.307-18.587T1483.133,53.755Z" transform="translate(-29.867 200.689)"/><path class="a" d="M1580.319,108.98a48.141,48.141,0,0,0,.766,8.11h-14.84l-1.759-2.981a40.842,40.842,0,0,1-20.343,5.2q-12.473,0-17.9-5.892t-5.429-18.432q0-20.728,9.866-37.019,10.862-18.132,30.216-18.128,11.318,0,30.668,2.677l-10.477,59.662A42.207,42.207,0,0,0,1580.319,108.98Zm-19.142-55.225q-15.742,0-21.092,22.49a75.573,75.573,0,0,0-2.215,17.743q0,11.4,8.8,11.4,8.87,0,17.973-5.507l8-45.137A67.585,67.585,0,0,0,1561.177,53.755Z" transform="translate(-29.867 200.689)"/><path class="a" d="M1647.685,57.122q-3.974-2.368-6.418-2.37-5.347,0-13.3,3.448l-10.329,58.892h-16.616l11.24-64.1a22.716,22.716,0,0,0,.307-3.9,28.122,28.122,0,0,0-.611-6.118l15.373-3.444a16.269,16.269,0,0,1,1.837,4.589,60.532,60.532,0,0,1,21.188-4.281q1.987,0,6.425.3Z" transform="translate(-29.867 200.689)"/><path class="a" d="M1697.216,117.091l-1.681-3.137a38.924,38.924,0,0,1-20.5,5.355q-8.181,0-12.392-1.759-8.488-3.519-9.71-14.766-2.755-23.939,8.029-42.526,11.773-20.426,31.887-20.421a61.151,61.151,0,0,1,13.61,1.448l5.5-30.442h16.623l-16.143,90.719a44.674,44.674,0,0,0,.311,15.528Zm7-61.873a57.1,57.1,0,0,0-12.1-1.462q-12.865,0-17.994,14.567a99.465,99.465,0,0,0-3.674,14.108,67.191,67.191,0,0,0-1.226,10.753q-.535,12.208,9.385,12.2a32.792,32.792,0,0,0,17.478-5.366Z" transform="translate(-29.867 200.689)"/><path class="b" d="M36.093-4.631a32.561,32.561,0,0,0,4.161.233h0c7.713,0,23.925-1.953,45.9-15.016C112.848-35.289,139.6-62.372,165.65-99.953c25.4-33.584,65.862-62.1,103.107-72.642,25.525-7.226,62.615-13.593,64.176-13.854a7.035,7.035,0,0,0,5.926-6.823,7.027,7.027,0,0,0-7.194-6.839H37.068a7.027,7.027,0,0,0-7.2,6.839V-11.4A6.962,6.962,0,0,0,36.093-4.631Z" transform="translate(-29.867 200.689)"/><path class="b" d="M331.538-79.928c-6.734.113-41.458,1.482-63.156,17.512-19.458,14.375-36.52,35.827-56.282,60.67-7.015,8.81-14.258,17.927-21.985,27.178C130.9,96.328,63.9,102.191,41.905,104.127c-2.474.212-4.421.389-5.927.6a6.955,6.955,0,0,0-6.111,6.75v.064a6.688,6.688,0,0,0,2.109,4.833,7.436,7.436,0,0,0,5.092,2l294.6-.025a7.021,7.021,0,0,0,7.194-6.839V-73.1a6.643,6.643,0,0,0-2.153-4.871A7.471,7.471,0,0,0,331.538-79.928Z" transform="translate(-29.867 200.689)"/></svg>